<?xml version="1.0" encoding="utf-8"?>
<!-- Svg Vector Icons : http://www.onlinewebfonts.com/icon -->
<!DOCTYPE svg PUBLIC "-//W3C//DTD SVG 1.1//EN" "http://www.w3.org/Graphics/SVG/1.1/DTD/svg11.dtd">
<svg version="1.1" xmlns="http://www.w3.org/2000/svg" xmlns:xlink="http://www.w3.org/1999/xlink" x="0px" y="0px" viewBox="0 0 256 256" enable-background="new 0 0 256 256" xml:space="preserve">
<metadata> Svg Vector Icons : http://www.onlinewebfonts.com/icon </metadata>
<g><g><g><path fill="#000000" d="M105.4,17.5c-47.3,6.9-85.9,44.2-94,91c-1.8,10.3-1.8,29,0,39.2c3.8,21.9,14.9,42.9,31.3,59.2c33.8,33.6,83.5,42,126.3,21.5c5.2-2.5,12.7-6.8,16.6-9.7l7.1-5.2l5.6,2.9c5.1,2.6,6.5,2.8,14.7,2.8c8.2,0,9.7-0.3,14.3-2.7c6.8-3.5,12.4-9.1,15.8-15.7c2.5-4.8,2.8-6.4,2.8-14.4c0-8-0.3-9.7-2.7-14.4c-2.4-4.7-11.8-15-13.9-15c-0.4,0,0.1-3.7,1-8.4c2.2-10.5,2.3-30.3,0.3-40.9c-5.6-29.4-23.4-56.2-48.3-72.7C160.1,20.3,131.5,13.7,105.4,17.5z M110.6,35.1C91.6,53.6,83.4,59.3,71,62.5c-7.2,1.9-21.1,2.8-27.3,1.8L39,63.5l6.2-6.6c18-19.4,46-32.5,69.9-32.8l6.9-0.1L110.6,35.1z M145.9,26.8c3.9,0.9,8.5,2.4,10.3,3.1l3.3,1.3l-6.2,2.2c-14.6,5.2-23.7,12.2-35.6,27.2c-16.5,20.6-27.4,28.9-46.9,35.1c-6.8,2.3-9.8,2.7-19.5,2.8C45,98.7,35.9,98.3,31,97.8l-8.9-0.9l0.6-2.9c0.3-1.6,2.8-7.4,5.6-12.9l4.9-10l14.7,0.3c17.6,0.4,25.4-0.9,36.6-6.3c8.9-4.4,15.2-9.3,33.5-27C133.5,23.2,132.9,23.5,145.9,26.8z M178.3,41.1c8.4,5.4,19.2,15.4,25.1,23l4,5.3l-5.7,6.6c-7.4,8.5-14.3,19-17,25.8c-1.4,3.6-2.3,8.3-2.6,14.1c-0.5,10.5,0.8,15.5,8,30.8l5.2,10.9l-5.6,5.8c-3.9,4-6.3,7.4-7.7,11.2c-3.5,9.6-2.3,21.8,3.1,30.1l2.5,3.7l-6.9,4.8c-16.1,11.5-34.5,17.8-54.9,18.6l-12.1,0.6l-0.7-3c-0.5-2.2-0.1-4.2,1.4-7.2c3.9-8,13.1-14.1,32.3-21.4c19.9-7.6,31.3-18,31.3-28.6c0-6.2-3.1-11.6-9.8-16.9c-5.9-4.7-11.9-10.7-19.6-20c-8.7-10.5-17.2-11.1-35.8-2.8c-21.8,9.6-30.9,12-57.7,14.7c-16.9,1.7-25.4,3.5-30.7,6.6l-4,2.4l-1.1-5c-3.1-14.5-3.4-28.5-0.9-41.8c1.2-6.4,0-6,16.8-3.9c13.9,1.7,22.9,1.3,34-1.6c8.5-2.2,20.8-7.7,27.6-12.3c7.1-4.8,18.7-16.5,26.9-27.1c7-9,12.9-14.4,21.2-19.3c4.7-2.8,20.4-8.5,23.6-8.6C170.1,36.4,174.2,38.4,178.3,41.1z M214.2,81.1l1.9,3.7l-4.8,9.3c-8.1,15.8-7.5,21,4.4,41.9c4.9,8.5,7.1,13.4,6.9,15c-0.3,2.4-0.4,2.4-10.6,2.7l-10.4,0.2l-4.5-9.5c-6.8-14.4-7.9-18.1-7.9-26.7c0-8.7,2-14.8,7.6-23.5c4.8-7.2,13.9-17.9,14.7-17.2C212,77.2,213.1,79.1,214.2,81.1z M223.1,107.1c2,9.3,3.1,27.6,1.8,28.4c-0.5,0.4-3.2-3.5-6-8.6c-6.8-12.3-7.3-17.3-2.8-26.6l3.1-6.4l1.1,2.8C221.1,98.4,222.3,103,223.1,107.1z M142.4,139.6c6.7,7.3,17.4,18,23.1,23.2c5,4.6,6.1,7.2,4.8,12c-1.7,6.6-14,14.9-30.2,20.7c-10.7,3.9-19.4,8.8-25.2,14.3c-6,5.8-8.9,11.5-9,17.3c0,2.3-0.2,4.1-0.5,4.1c-0.2,0-2.5-0.5-5-1c-4.2-0.9-4.7-1.3-5.3-3.9c-2.8-13.9,3.3-22.7,22.1-32.1c14-6.9,21-15.8,19.8-24.8c-1.1-8.9-9.1-15.2-19-15.2c-3,0-10.4,1.4-17.4,3.3c-6.7,1.9-16.4,4.3-21.5,5.3c-9.8,2-14.7,4-19.6,8.1c-4.7,4-9.9,11.7-13,19.6l-3,7.4l-4.8-6.4c-6-7.9-10.9-16.2-13.4-22.7l-1.9-4.9l2.8-2.4c4.2-3.5,10.5-5,30.3-7.2c28.4-3.1,35.5-4.8,54-13c14.7-6.6,15.6-6.7,21.9-6.8C137.5,134.3,137.6,134.4,142.4,139.6z M224.3,162.9c5.3,2.6,12,10.1,13.5,15.2c6.3,20.7-12.3,39.3-33,33.1c-4.6-1.3-11.4-6.9-14.3-11.7c-3-4.9-4.2-12-2.9-18C191,164.7,209.1,155.6,224.3,162.9z M123.4,162.2c4.1,1.7,6.3,4.8,6.3,9.1c0,6.4-4.5,10.6-18.4,17.8c-16.1,8.1-23.7,18.1-23.8,30.9c0,3.7-0.4,6.5-0.9,6.5c-2.6,0-21.2-10.2-27.9-15.3c-8.8-6.6-9.1-7.5-5.6-16.7c3.7-10.2,9.7-18,16.1-21.3c2-1,8-2.7,13.3-3.7c5.4-1,14.9-3.4,21.2-5.1C116.3,160.6,118.9,160.3,123.4,162.2z"/><path fill="#000000" d="M150.8,69.1c-5.5,1.8-9.4,4.8-12.2,9.5c-8.5,14.3,1.6,31.9,18.1,31.9c12.4-0.1,21.3-8.7,21.3-20.9C178.1,75.3,164.1,64.7,150.8,69.1z M162.2,76.4c9.8,5,11.8,16.7,4,23.6c-4.4,3.8-8.8,4.6-14.2,2.5c-6-2.3-8.5-6.2-8.5-13c0-3.9,0.5-6.1,1.9-8C149.2,76.2,157.3,73.9,162.2,76.4z"/><path fill="#000000" d="M39.5,117.9c-11.2,6.1-7.1,23.1,5.5,23c2.4-0.1,5.3-0.6,6.6-1.3c8.3-4.6,7.5-18.3-1.2-22C45.9,115.8,43.4,115.9,39.5,117.9z M49.4,126.2c1.2,2,1.4,2.9,0.6,4.8c-2.4,5.2-9.7,3.3-9.7-2.5C40.3,123.6,46.8,122.1,49.4,126.2z"/></g></g></g>
</svg>